<svg width="121" height="121" viewBox="0 0 121 121" fill="none" xmlns="http://www.w3.org/2000/svg">
<path d="M56.2149 119.851C58.8665 121.383 62.1335 121.383 64.7851 119.851L109.715 93.8894C112.367 92.3573 114 89.5257 114 86.4614V34.5386C114 31.4742 112.367 28.6427 109.715 27.1105L64.7851 1.14912C62.1335 -0.383041 58.8665 -0.383041 56.2149 1.14912L11.2851 27.1105C8.63346 28.6427 7 31.4742 7 34.5386V86.4614C7 89.5257 8.63346 92.3573 11.2851 93.8894L56.2149 119.851Z" fill="#FF0000"/>
<path fill-rule="evenodd" clip-rule="evenodd" d="M64.7851 97.6933C62.1334 99.2254 58.8665 99.2254 56.2149 97.6933L30.4585 82.8107C27.8069 81.2785 26.1734 78.447 26.1734 75.3826V45.6174C26.1734 42.5531 27.8069 39.7215 30.4585 38.1894L56.2149 23.3067C58.8665 21.7746 62.1335 21.7746 64.7851 23.3067L90.5415 38.1894C93.1931 39.7215 94.8266 42.5531 94.8266 45.6174V75.3826C94.8266 78.447 93.1931 81.2785 90.5415 82.8107L64.7851 97.6933ZM63.3567 94.9448C61.589 95.9662 59.411 95.9662 57.6433 94.9448L32.1226 80.1984C30.3549 79.177 29.2659 77.2893 29.2659 75.2464V45.7536C29.2659 43.7107 30.3549 41.823 32.1226 40.8016L57.6433 26.0552C59.411 25.0338 61.589 25.0338 63.3567 26.0552L88.8774 40.8016C90.6451 41.823 91.7341 43.7107 91.7341 45.7536V75.2464C91.7341 77.2893 90.6451 79.177 88.8774 80.1984L63.3567 94.9448Z" fill="white"/>
<path d="M79.4257 60.1426L48.359 42.1916V78.0937L79.4257 60.1426Z" fill="white"/>
</svg>
